<?xml version="1.0" encoding="UTF-8" standalone="no"?>
<!DOCTYPE svg PUBLIC "-//W3C//DTD SVG 1.1//EN" "http://www.w3.org/Graphics/SVG/1.1/DTD/svg11.dtd">
<svg version="1.1" 
    xmlns="http://www.w3.org/2000/svg" 
    xmlns:xlink="http://www.w3.org/1999/xlink" preserveAspectRatio="xMidYMid meet" viewBox="0 0 640 640" width="640" height="640">
    <defs>
        <!-- <path d="M509.74 321.58C509.74 426.3 423.87 511.32 318.11 511.32C212.35 511.32 126.49 426.3 126.49 321.58C126.49 216.86 212.35 131.84 318.11 131.84C423.87 131.84 509.74 216.86 509.74 321.58Z" id="c2AC6V1ZRJ"></path>
        <path d="M 205.04 388.98 C 216.26 388.98 226.45 378.79 235.61 358.4 L 235.61 327.82 C 217.27 327.82 207.08 327.82 205.04 327.82 C 188.21 327.82 174.46 341.57 174.46 358.4 C 174.46 375.23 188.21 388.98 205.04 388.98 Z" id="apP3LxBfU"></path>
        <path d="M 327.82 358.4 C 327.82 369.62 338.01 379.81 358.4 388.98 C 404.34 388.98 429.86 388.98 434.96 388.98 C 451.79 388.98 465.54 375.23 465.54 358.4 C 465.54 341.57 451.79 327.82 434.96 327.82 C 427.31 327.82 366.06 327.82 358.4 327.82 C 341.57 327.82 327.82 341.57 327.82 358.4 Z" id="a2XmSE4STn"></path>
        <path d="M 281.6 327.82 C 264.77 327.82 251.02 341.57 251.02 358.4 C 251.02 358.4 251.02 434.96 251.02 434.96 C 251.02 451.79 264.77 465.54 281.6 465.54 C 298.43 465.54 312.18 451.79 312.18 434.96 C 312.18 427.31 312.18 366.06 312.18 358.4 C 312.18 341.57 298.43 327.82 281.6 327.82 Z" id="do3fuBA6y"></path>
        <path d="M 388.98 434.96 C 388.98 423.74 378.79 413.55 358.4 404.39 L 327.82 404.39 C 327.82 422.73 327.82 432.92 327.82 434.96 C 327.82 451.79 341.57 465.54 358.4 465.54 C 375.23 465.54 388.98 451.79 388.98 434.96 Z" id="b73LZ3Lq5B"></path>
        <path d="M 251.02 205.04 C 251.02 216.26 261.21 226.45 281.6 235.61 L 312.18 235.61 C 312.18 217.27 312.18 207.08 312.18 205.04 C 312.18 188.21 298.43 174.46 281.6 174.46 C 264.77 174.46 251.02 188.21 251.02 205.04 Z" id="c4RVjZRfXw"></path>
        <path d="M 358.4 312.18 C 369.62 312.18 379.81 301.99 388.98 281.6 C 388.98 235.66 388.98 210.14 388.98 205.04 C 388.98 188.21 375.23 174.46 358.4 174.46 C 341.57 174.46 327.82 188.21 327.82 205.04 C 327.82 212.69 327.82 273.94 327.82 281.6 C 327.82 298.43 341.57 312.18 358.4 312.18 Z" id="bsInzzQf5"></path>
        <path d="M 312.18 281.6 C 312.18 264.77 298.43 251.02 281.6 251.02 C 281.6 251.02 205.04 251.02 205.04 251.02 C 188.21 251.02 174.46 264.77 174.46 281.6 C 174.46 298.43 188.21 312.18 205.04 312.18 C 212.69 312.18 273.94 312.18 281.6 312.18 C 298.43 312.18 312.18 298.43 312.18 281.6 Z" id="dK9L2tNKY"></path>
        <path d="M 434.96 251.02 C 423.74 251.02 413.55 261.21 404.39 281.6 L 404.39 312.18 C 422.73 312.18 432.92 312.18 434.96 312.18 C 451.79 312.18 465.54 298.43 465.54 281.6 C 465.54 264.77 451.79 251.02 434.96 251.02 Z" id="j110CkyG3"></path> -->
        <path d="M509.74 321.58C509.74 426.3 423.87 511.32 318.11 511.32C212.35 511.32 126.49 426.3 126.49 321.58C126.49 216.86 212.35 131.84 318.11 131.84C423.87 131.84 509.74 216.86 509.74 321.58 M 205.04 388.98 C 216.26 388.98 226.45 378.79 235.61 358.4 L 235.61 327.82 C 217.27 327.82 207.08 327.82 205.04 327.82 C 188.21 327.82 174.46 341.57 174.46 358.4 C 174.46 375.23 188.21 388.98 205.04 388.98 M 327.82 358.4 C 327.82 369.62 338.01 379.81 358.4 388.98 C 404.34 388.98 429.86 388.98 434.96 388.98 C 451.79 388.98 465.54 375.23 465.54 358.4 C 465.54 341.57 451.79 327.82 434.96 327.82 C 427.31 327.82 366.06 327.82 358.4 327.82 C 341.57 327.82 327.82 341.57 327.82 358.4 M 281.6 327.82 C 264.77 327.82 251.02 341.57 251.02 358.4 C 251.02 358.4 251.02 434.96 251.02 434.96 C 251.02 451.79 264.77 465.54 281.6 465.54 C 298.43 465.54 312.18 451.79 312.18 434.96 C 312.18 427.31 312.18 366.06 312.18 358.4 C 312.18 341.57 298.43 327.82 281.6 327.82 M 388.98 434.96 C 388.98 423.74 378.79 413.55 358.4 404.39 L 327.82 404.39 C 327.82 422.73 327.82 432.92 327.82 434.96 C 327.82 451.79 341.57 465.54 358.4 465.54 C 375.23 465.54 388.98 451.79 388.98 434.96 M 251.02 205.04 C 251.02 216.26 261.21 226.45 281.6 235.61 L 312.18 235.61 C 312.18 217.27 312.18 207.08 312.18 205.04 C 312.18 188.21 298.43 174.46 281.6 174.46 C 264.77 174.46 251.02 188.21 251.02 205.04 M 358.4 312.18 C 369.62 312.18 379.81 301.99 388.98 281.6 C 388.98 235.66 388.98 210.14 388.98 205.04 C 388.98 188.21 375.23 174.46 358.4 174.46 C 341.57 174.46 327.82 188.21 327.82 205.04 C 327.82 212.69 327.82 273.94 327.82 281.6 C 327.82 298.43 341.57 312.18 358.4 312.18 M 312.18 281.6 C 312.18 264.77 298.43 251.02 281.6 251.02 C 281.6 251.02 205.04 251.02 205.04 251.02 C 188.21 251.02 174.46 264.77 174.46 281.6 C 174.46 298.43 188.21 312.18 205.04 312.18 C 212.69 312.18 273.94 312.18 281.6 312.18 C 298.43 312.18 312.18 298.43 312.18 281.6 M 434.96 251.02 C 423.74 251.02 413.55 261.21 404.39 281.6 L 404.39 312.18 C 422.73 312.18 432.92 312.18 434.96 312.18 C 451.79 312.18 465.54 298.43 465.54 281.6 C 465.54 264.77 451.79 251.02 434.96 251.02 Z" id="c2AC6V1ZRJ"></path>
    </defs>
    <g>
        <g>
            <g>
                <use xlink:href="#c2AC6V1ZRJ" opacity="1" fill="#ababab" fill-opacity="1" fill-rule="evenodd"></use>
            </g>
            <!-- <g>
                <use xlink:href="#apP3LxBfU" opacity="1"></use>
            </g>
            <g>
                <use xlink:href="#a2XmSE4STn" opacity="1"></use>
            </g>
            <g>
                <use xlink:href="#do3fuBA6y" opacity="1"></use>
            </g>
            <g>
                <use xlink:href="#b73LZ3Lq5B" opacity="1"></use>
            </g>
            <g>
                <use xlink:href="#c4RVjZRfXw" opacity="1"></use>
            </g>
            <g>
                <use xlink:href="#bsInzzQf5" opacity="1"></use>
            </g>
            <g>
                <use xlink:href="#dK9L2tNKY" opacity="1"></use>
            </g>
            <g>
                <use xlink:href="#j110CkyG3" opacity="1"></use>
            </g> -->
        </g>
    </g>
</svg>